<?xml version="1.0" encoding="UTF-8"?>
<svg id="Capa_2" data-name="Capa 2" xmlns="http://www.w3.org/2000/svg" xmlns:xlink="http://www.w3.org/1999/xlink" viewBox="0 0 472 116">
  <defs>
    <style>
      .cls-1 {
        fill: #86a315;
        filter: url(#drop-shadow-1);
      }

      .cls-1, .cls-2, .cls-3 {
        stroke-width: 0px;
      }

      .cls-2 {
        fill: #fff;
        filter: url(#drop-shadow-2);
      }

      .cls-3 {
        fill: #333;
        opacity: .08;
      }
    </style>
    <filter id="drop-shadow-1" filterUnits="userSpaceOnUse">
      <feOffset dx=".49" dy=".49"/>
      <feGaussianBlur result="blur" stdDeviation=".49"/>
      <feFlood flood-color="#000" flood-opacity=".3"/>
      <feComposite in2="blur" operator="in"/>
      <feComposite in="SourceGraphic"/>
    </filter>
    <filter id="drop-shadow-2" filterUnits="userSpaceOnUse">
      <feOffset dx=".49" dy=".49"/>
      <feGaussianBlur result="blur-2" stdDeviation="0"/>
      <feFlood flood-color="#000" flood-opacity=".3"/>
      <feComposite in2="blur-2" operator="in"/>
      <feComposite in="SourceGraphic"/>
    </filter>
  </defs>
  <g id="Capa_5" data-name="Capa 5">
    <g id="USUARIOS">
      <path class="cls-1" d="M413.28,113.98H1.63v-56.29C1.63,26.61,26.83,1.41,57.92,1.41h355.36c31.09,0,56.29,25.2,56.29,56.29h0c0,31.09-25.2,56.29-56.29,56.29Z"/>
      <path class="cls-3" d="M1.63,57.69C1.63,26.61,26.83,1.41,57.92,1.41h355.36c31.09,0,56.29,25.2,56.29,56.29h0"/>
      <path class="cls-2" d="M163.06,45.86v13.96c0,1.14.25,2.05.75,2.71.5.67,1.31,1,2.43,1s1.95-.33,2.48-1,.81-1.57.81-2.71v-13.96h7.73v13.96c0,2.36-.49,4.37-1.47,6.04-.98,1.67-2.32,2.92-4.03,3.76-1.7.84-3.6,1.26-5.7,1.26s-3.96-.42-5.58-1.26c-1.62-.84-2.89-2.09-3.8-3.75-.91-1.66-1.36-3.67-1.36-6.06v-13.96h7.73ZM184.46,69.98c-1.43-.61-2.57-1.45-3.41-2.52s-1.32-2.29-1.43-3.64h7.46c.09.58.34,1.02.75,1.29.41.28.93.42,1.56.42.4,0,.71-.09.95-.26.23-.18.35-.39.35-.65,0-.44-.25-.76-.74-.95-.49-.19-1.32-.4-2.48-.63-1.42-.28-2.6-.58-3.52-.91-.92-.33-1.73-.89-2.42-1.68-.69-.79-1.03-1.89-1.03-3.29,0-1.21.32-2.32.96-3.31.64-.99,1.59-1.77,2.85-2.34s2.79-.86,4.58-.86c2.66,0,4.74.65,6.25,1.96,1.5,1.31,2.41,3.01,2.71,5.11h-6.89c-.12-.54-.36-.95-.74-1.24-.37-.29-.88-.44-1.5-.44-.4,0-.7.08-.91.23-.21.15-.31.38-.31.68,0,.4.25.69.73.89.49.2,1.27.4,2.35.61,1.42.28,2.62.6,3.6.95.98.35,1.83.95,2.55,1.8.72.85,1.08,2.02,1.08,3.52,0,1.17-.34,2.22-1.01,3.15s-1.65,1.67-2.92,2.21c-1.27.54-2.76.8-4.46.8-1.87,0-3.52-.3-4.95-.91ZM221.79,50.9v19.74h-7.77v-3.01c-.61.93-1.42,1.69-2.43,2.27-1.01.58-2.22.88-3.62.88-2.26,0-4.03-.76-5.3-2.27-1.27-1.52-1.91-3.57-1.91-6.16v-11.45h7.73v10.46c0,.93.25,1.67.75,2.22.5.55,1.17.82,2.01.82s1.54-.27,2.03-.82c.49-.55.74-1.29.74-2.22v-10.46h7.77ZM225.31,55.36c.71-1.53,1.69-2.7,2.92-3.5,1.24-.81,2.62-1.21,4.17-1.21,1.28,0,2.39.26,3.32.79.93.52,1.65,1.24,2.14,2.15v-2.7h7.73v19.74h-7.73v-2.7c-.49.91-1.2,1.63-2.14,2.15-.93.53-2.04.79-3.32.79-1.54,0-2.93-.4-4.17-1.21-1.24-.8-2.21-1.97-2.92-3.5-.71-1.53-1.07-3.33-1.07-5.41s.36-3.88,1.07-5.41ZM237.05,58.32c-.54-.58-1.22-.88-2.06-.88s-1.53.29-2.07.88c-.54.58-.8,1.4-.8,2.45s.27,1.87.8,2.45c.54.58,1.23.88,2.07.88s1.53-.29,2.06-.88.81-1.4.81-2.45-.27-1.87-.81-2.45ZM259.76,51.79c1.14-.69,2.33-1.03,3.57-1.03v8.29h-2.21c-1.47,0-2.55.26-3.24.77-.69.51-1.03,1.42-1.03,2.73v8.08h-7.77v-19.74h7.77v3.64c.79-1.14,1.76-2.06,2.91-2.75ZM266.1,48.24c-.82-.72-1.22-1.63-1.22-2.73s.41-2.05,1.22-2.78c.82-.73,1.9-1.1,3.25-1.1s2.4.37,3.22,1.1,1.23,1.66,1.23,2.78-.41,2.01-1.23,2.73c-.82.72-1.89,1.08-3.22,1.08s-2.44-.36-3.25-1.08ZM273.2,50.9v19.74h-7.77v-19.74h7.77ZM280.73,69.66c-1.59-.82-2.83-1.99-3.73-3.52-.9-1.53-1.35-3.32-1.35-5.37s.45-3.84,1.35-5.37c.9-1.53,2.14-2.7,3.73-3.52,1.59-.82,3.37-1.23,5.35-1.23s3.77.41,5.36,1.23c1.59.82,2.83,1.99,3.73,3.52.9,1.53,1.35,3.32,1.35,5.37s-.45,3.84-1.35,5.37c-.9,1.53-2.14,2.7-3.73,3.52-1.59.82-3.37,1.23-5.36,1.23s-3.77-.41-5.35-1.23ZM287.9,63.31c.49-.57.73-1.42.73-2.54s-.24-1.97-.73-2.54c-.49-.57-1.1-.86-1.82-.86s-1.33.29-1.82.86c-.49.57-.73,1.42-.73,2.54s.24,1.97.72,2.54c.48.57,1.09.86,1.84.86s1.33-.29,1.82-.86ZM302.79,69.98c-1.43-.61-2.57-1.45-3.41-2.52s-1.32-2.29-1.43-3.64h7.46c.09.58.34,1.02.75,1.29.41.28.93.42,1.56.42.4,0,.71-.09.95-.26.23-.18.35-.39.35-.65,0-.44-.25-.76-.74-.95-.49-.19-1.32-.4-2.48-.63-1.42-.28-2.6-.58-3.52-.91-.92-.33-1.73-.89-2.42-1.68-.69-.79-1.03-1.89-1.03-3.29,0-1.21.32-2.32.96-3.31.64-.99,1.59-1.77,2.85-2.34s2.79-.86,4.58-.86c2.66,0,4.74.65,6.25,1.96,1.5,1.31,2.41,3.01,2.71,5.11h-6.89c-.12-.54-.36-.95-.74-1.24-.37-.29-.88-.44-1.5-.44-.4,0-.7.08-.91.23-.21.15-.31.38-.31.68,0,.4.25.69.73.89.49.2,1.27.4,2.35.61,1.42.28,2.62.6,3.6.95.98.35,1.83.95,2.55,1.8.72.85,1.08,2.02,1.08,3.52,0,1.17-.34,2.22-1.01,3.15s-1.65,1.67-2.92,2.21c-1.27.54-2.76.8-4.46.8-1.87,0-3.52-.3-4.95-.91Z"/>
    </g>
  </g>
</svg>