<?xml version="1.0" encoding="UTF-8"?>
<svg id="Capa_2" data-name="Capa 2" xmlns="http://www.w3.org/2000/svg" xmlns:xlink="http://www.w3.org/1999/xlink" viewBox="0 0 472 116">
  <defs>
    <style>
      .cls-1 {
        fill: #fff;
        filter: url(#drop-shadow-2);
      }

      .cls-1, .cls-2, .cls-3 {
        stroke-width: 0px;
      }

      .cls-2 {
        fill: #333;
        opacity: .08;
      }

      .cls-3 {
        fill: #ff5b00;
        filter: url(#drop-shadow-1);
      }
    </style>
    <filter id="drop-shadow-1" filterUnits="userSpaceOnUse">
      <feOffset dx=".49" dy=".49"/>
      <feGaussianBlur result="blur" stdDeviation=".49"/>
      <feFlood flood-color="#000" flood-opacity=".3"/>
      <feComposite in2="blur" operator="in"/>
      <feComposite in="SourceGraphic"/>
    </filter>
    <filter id="drop-shadow-2" filterUnits="userSpaceOnUse">
      <feOffset dx=".49" dy=".49"/>
      <feGaussianBlur result="blur-2" stdDeviation="0"/>
      <feFlood flood-color="#000" flood-opacity=".3"/>
      <feComposite in2="blur-2" operator="in"/>
      <feComposite in="SourceGraphic"/>
    </filter>
  </defs>
  <g id="Capa_5" data-name="Capa 5">
    <g id="REPORTES">
      <path class="cls-3" d="M413.32,113.75H1.67v-56.29C1.67,26.38,26.87,1.18,57.96,1.18h355.36c31.09,0,56.29,25.2,56.29,56.29h0c0,31.09-25.2,56.29-56.29,56.29Z"/>
      <path class="cls-2" d="M1.67,57.47C1.67,26.38,26.87,1.18,57.96,1.18h355.36c31.09,0,56.29,25.2,56.29,56.29h0"/>
      <path class="cls-1" d="M167.6,70.42l-4.66-8.89h-.04v8.89h-7.77v-24.78h11.55c2.01,0,3.72.36,5.15,1.07,1.42.71,2.49,1.68,3.2,2.9s1.07,2.61,1.07,4.15c0,1.66-.46,3.13-1.38,4.41s-2.25,2.21-3.97,2.76l5.39,9.49h-8.54ZM162.91,56.35h3.08c.75,0,1.31-.17,1.68-.51.37-.34.56-.87.56-1.59,0-.65-.19-1.17-.58-1.54-.38-.37-.94-.56-1.66-.56h-3.08v4.2ZM197.59,61.91h-12.5c.12,1.7.83,2.55,2.13,2.55.84,0,1.45-.38,1.82-1.16h8.23c-.28,1.4-.87,2.66-1.77,3.76-.9,1.11-2.03,1.98-3.4,2.62-1.37.64-2.86.96-4.5.96-1.96,0-3.71-.41-5.23-1.23-1.53-.82-2.72-1.99-3.57-3.52-.85-1.53-1.28-3.32-1.28-5.37s.42-3.84,1.28-5.37c.85-1.53,2.04-2.7,3.57-3.52,1.53-.82,3.27-1.23,5.23-1.23s3.7.4,5.23,1.21c1.53.8,2.72,1.95,3.57,3.45.85,1.49,1.28,3.25,1.28,5.29,0,.54-.04,1.05-.11,1.54ZM189.83,58.52c0-.65-.21-1.15-.63-1.49-.42-.34-.95-.51-1.58-.51-1.38,0-2.18.67-2.42,1.99h4.62ZM210.04,51.22c.92-.53,2.02-.79,3.31-.79,1.54,0,2.93.4,4.17,1.21,1.24.8,2.21,1.97,2.92,3.5s1.07,3.33,1.07,5.41-.36,3.88-1.07,5.41c-.71,1.53-1.69,2.7-2.92,3.5-1.24.81-2.62,1.21-4.17,1.21-1.28,0-2.39-.26-3.31-.79-.92-.52-1.63-1.24-2.12-2.15v12.15h-7.77v-29.19h7.77v2.7c.49-.91,1.2-1.63,2.12-2.15ZM212.82,58.1c-.54-.58-1.22-.88-2.06-.88s-1.53.29-2.07.88c-.54.58-.8,1.4-.8,2.45s.27,1.87.8,2.45c.54.58,1.22.88,2.07.88s1.53-.29,2.06-.88c.54-.58.8-1.4.8-2.45s-.27-1.87-.8-2.45ZM227.97,69.44c-1.59-.82-2.83-1.99-3.73-3.52-.9-1.53-1.35-3.32-1.35-5.37s.45-3.84,1.35-5.37c.9-1.53,2.14-2.7,3.73-3.52,1.59-.82,3.37-1.23,5.35-1.23s3.77.41,5.36,1.23c1.59.82,2.83,1.99,3.73,3.52.9,1.53,1.35,3.32,1.35,5.37s-.45,3.84-1.35,5.37c-.9,1.53-2.14,2.7-3.73,3.52-1.59.82-3.37,1.23-5.36,1.23s-3.77-.41-5.35-1.23ZM235.15,63.08c.49-.57.73-1.42.73-2.54s-.24-1.97-.73-2.54c-.49-.57-1.1-.86-1.82-.86s-1.33.29-1.82.86c-.49.57-.73,1.42-.73,2.54s.24,1.97.72,2.54c.48.57,1.09.86,1.84.86s1.33-.29,1.82-.86ZM256.88,51.57c1.14-.69,2.33-1.03,3.57-1.03v8.29h-2.21c-1.47,0-2.55.26-3.24.77-.69.51-1.03,1.42-1.03,2.73v8.08h-7.77v-19.74h7.77v3.64c.79-1.14,1.76-2.06,2.91-2.75ZM274.84,63.8v6.62h-2.94c-5.41,0-8.12-2.7-8.12-8.08v-5.18h-2.45v-6.48h2.45v-4.76h7.77v4.76h3.22v6.48h-3.22v5.32c0,.47.11.81.33,1.02s.59.31,1.1.31h1.86ZM296.82,61.91h-12.5c.12,1.7.83,2.55,2.13,2.55.84,0,1.45-.38,1.82-1.16h8.23c-.28,1.4-.87,2.66-1.77,3.76-.9,1.11-2.03,1.98-3.4,2.62-1.37.64-2.86.96-4.5.96-1.96,0-3.71-.41-5.23-1.23-1.53-.82-2.72-1.99-3.57-3.52-.85-1.53-1.28-3.32-1.28-5.37s.42-3.84,1.28-5.37c.85-1.53,2.04-2.7,3.57-3.52,1.53-.82,3.27-1.23,5.23-1.23s3.7.4,5.23,1.21c1.53.8,2.72,1.95,3.57,3.45.85,1.49,1.28,3.25,1.28,5.29,0,.54-.04,1.05-.11,1.54ZM289.05,58.52c0-.65-.21-1.15-.63-1.49-.42-.34-.95-.51-1.58-.51-1.38,0-2.18.67-2.42,1.99h4.62ZM303.21,69.75c-1.43-.61-2.57-1.45-3.41-2.52s-1.32-2.29-1.43-3.64h7.46c.09.58.34,1.02.75,1.29.41.28.93.42,1.56.42.4,0,.71-.09.95-.26.23-.18.35-.39.35-.65,0-.44-.25-.76-.74-.95-.49-.19-1.32-.4-2.48-.63-1.42-.28-2.6-.58-3.52-.91-.92-.33-1.73-.89-2.42-1.68-.69-.79-1.03-1.89-1.03-3.29,0-1.21.32-2.32.96-3.31.64-.99,1.59-1.77,2.85-2.34s2.79-.86,4.58-.86c2.66,0,4.74.65,6.25,1.96,1.5,1.31,2.41,3.01,2.71,5.11h-6.89c-.12-.54-.36-.95-.74-1.24-.37-.29-.88-.44-1.5-.44-.4,0-.7.08-.91.23-.21.15-.31.38-.31.68,0,.4.25.69.73.89.49.2,1.27.4,2.35.61,1.42.28,2.62.6,3.6.95.98.35,1.83.95,2.55,1.8.72.85,1.08,2.02,1.08,3.52,0,1.17-.34,2.22-1.01,3.15s-1.65,1.67-2.92,2.21c-1.27.54-2.76.8-4.46.8-1.87,0-3.52-.3-4.95-.91Z"/>
    </g>
  </g>
</svg>