<?xml version="1.0" encoding="UTF-8"?>
<svg id="Capa_2" data-name="Capa 2" xmlns="http://www.w3.org/2000/svg" xmlns:xlink="http://www.w3.org/1999/xlink" viewBox="0 0 472 116">
  <defs>
    <style>
      .cls-1 {
        fill: #86a315;
        filter: url(#drop-shadow-1);
      }

      .cls-1, .cls-2, .cls-3 {
        stroke-width: 0px;
      }

      .cls-2 {
        fill: #fff;
        filter: url(#drop-shadow-2);
      }

      .cls-3 {
        fill: #333;
        opacity: .08;
      }
    </style>
    <filter id="drop-shadow-1" filterUnits="userSpaceOnUse">
      <feOffset dx=".49" dy=".49"/>
      <feGaussianBlur result="blur" stdDeviation=".49"/>
      <feFlood flood-color="#000" flood-opacity=".3"/>
      <feComposite in2="blur" operator="in"/>
      <feComposite in="SourceGraphic"/>
    </filter>
    <filter id="drop-shadow-2" filterUnits="userSpaceOnUse">
      <feOffset dx=".49" dy=".49"/>
      <feGaussianBlur result="blur-2" stdDeviation="0"/>
      <feFlood flood-color="#000" flood-opacity=".3"/>
      <feComposite in2="blur-2" operator="in"/>
      <feComposite in="SourceGraphic"/>
    </filter>
  </defs>
  <g id="Capa_5" data-name="Capa 5">
    <g id="REGISTROS">
      <path class="cls-1" d="M413.24,113.57H1.59v-56.29C1.59,26.19,26.79.99,57.88.99h355.36c31.09,0,56.29,25.2,56.29,56.29h0c0,31.09-25.2,56.29-56.29,56.29Z"/>
      <path class="cls-3" d="M1.59,57.28C1.59,26.19,26.79.99,57.88.99h355.36c31.09,0,56.29,25.2,56.29,56.29h0"/>
      <path class="cls-2" d="M162.53,70.23l-4.66-8.89h-.04v8.89h-7.77v-24.78h11.55c2.01,0,3.72.36,5.15,1.07,1.42.71,2.49,1.68,3.2,2.9.71,1.23,1.07,2.61,1.07,4.15,0,1.66-.46,3.13-1.38,4.41s-2.25,2.21-3.97,2.76l5.39,9.49h-8.54ZM157.84,56.16h3.08c.75,0,1.31-.17,1.68-.51.37-.34.56-.87.56-1.59,0-.65-.19-1.17-.58-1.54-.38-.37-.94-.56-1.66-.56h-3.08v4.2ZM192.53,61.73h-12.5c.12,1.7.83,2.55,2.13,2.55.84,0,1.45-.38,1.82-1.16h8.23c-.28,1.4-.87,2.66-1.77,3.76-.9,1.11-2.03,1.98-3.4,2.62-1.37.64-2.86.96-4.5.96-1.96,0-3.71-.41-5.23-1.23-1.53-.82-2.72-1.99-3.57-3.52-.85-1.53-1.28-3.32-1.28-5.37s.42-3.84,1.28-5.37c.85-1.53,2.04-2.7,3.57-3.52,1.53-.82,3.27-1.22,5.23-1.22s3.7.4,5.23,1.21c1.53.8,2.72,1.96,3.57,3.45.85,1.49,1.28,3.25,1.28,5.29,0,.54-.04,1.05-.11,1.54ZM184.76,58.33c0-.65-.21-1.15-.63-1.49-.42-.34-.95-.51-1.58-.51-1.38,0-2.18.67-2.42,2h4.62ZM205.51,51.03c.93.53,1.65,1.24,2.14,2.15v-2.7h7.73v19.39c0,1.84-.34,3.52-1.01,5.04-.68,1.52-1.77,2.73-3.27,3.64s-3.44,1.37-5.79,1.37c-3.17,0-5.69-.74-7.54-2.22-1.86-1.48-2.91-3.5-3.17-6.04h7.63c.21,1.03,1.05,1.54,2.52,1.54.91,0,1.62-.23,2.13-.7.51-.47.77-1.34.77-2.62v-2.35c-.49.91-1.2,1.63-2.14,2.15-.93.53-2.04.79-3.32.79-1.54,0-2.93-.4-4.17-1.21-1.24-.8-2.21-1.97-2.92-3.5-.71-1.53-1.07-3.33-1.07-5.41s.36-3.88,1.07-5.41c.71-1.53,1.69-2.7,2.92-3.5,1.24-.8,2.62-1.21,4.17-1.21,1.28,0,2.39.26,3.32.79ZM206.84,57.91c-.54-.58-1.22-.88-2.06-.88s-1.53.29-2.07.88c-.54.58-.8,1.4-.8,2.45s.27,1.87.8,2.45c.54.58,1.23.88,2.07.88s1.53-.29,2.06-.88.81-1.4.81-2.45-.27-1.87-.81-2.45ZM219.55,47.83c-.82-.72-1.22-1.63-1.22-2.73s.41-2.05,1.22-2.78c.82-.74,1.9-1.1,3.25-1.1s2.4.37,3.22,1.1c.82.73,1.23,1.66,1.23,2.78s-.41,2.01-1.23,2.73-1.89,1.08-3.22,1.08-2.44-.36-3.25-1.08ZM226.65,50.49v19.74h-7.77v-19.74h7.77ZM233.98,69.57c-1.43-.61-2.57-1.45-3.41-2.52s-1.32-2.29-1.43-3.64h7.46c.09.58.34,1.02.75,1.29.41.28.93.42,1.56.42.4,0,.71-.09.95-.26.23-.18.35-.39.35-.65,0-.44-.25-.76-.74-.95-.49-.19-1.32-.4-2.48-.63-1.42-.28-2.6-.58-3.52-.91-.92-.33-1.73-.89-2.42-1.68-.69-.79-1.03-1.89-1.03-3.29,0-1.21.32-2.32.96-3.31.64-.99,1.59-1.77,2.85-2.34,1.26-.57,2.79-.86,4.58-.86,2.66,0,4.74.65,6.25,1.96s2.41,3.01,2.71,5.11h-6.89c-.12-.54-.36-.95-.74-1.24s-.88-.44-1.5-.44c-.4,0-.7.08-.91.23-.21.15-.31.38-.31.68,0,.4.25.69.73.89.49.2,1.27.4,2.35.61,1.42.28,2.62.59,3.6.94.98.35,1.83.95,2.55,1.8.72.85,1.08,2.02,1.08,3.52,0,1.17-.34,2.22-1.01,3.15s-1.65,1.67-2.92,2.21c-1.27.54-2.76.8-4.46.8-1.87,0-3.52-.3-4.95-.91ZM262.7,63.62v6.62h-2.94c-5.41,0-8.12-2.7-8.12-8.08v-5.18h-2.45v-6.48h2.45v-4.76h7.77v4.76h3.22v6.48h-3.22v5.32c0,.47.11.81.33,1.02s.59.31,1.1.31h1.86ZM276.35,51.38c1.14-.69,2.33-1.03,3.57-1.03v8.29h-2.21c-1.47,0-2.55.26-3.24.77-.69.51-1.03,1.42-1.03,2.73v8.08h-7.77v-19.74h7.77v3.64c.79-1.14,1.76-2.06,2.91-2.75ZM286.05,69.25c-1.59-.82-2.83-1.99-3.73-3.52-.9-1.53-1.35-3.32-1.35-5.37s.45-3.84,1.35-5.37c.9-1.53,2.14-2.7,3.73-3.52,1.59-.82,3.37-1.22,5.35-1.22s3.77.41,5.36,1.22c1.59.82,2.83,1.99,3.73,3.52.9,1.53,1.35,3.32,1.35,5.37s-.45,3.84-1.35,5.37c-.9,1.53-2.14,2.7-3.73,3.52-1.59.82-3.37,1.23-5.36,1.23s-3.77-.41-5.35-1.23ZM293.22,62.9c.49-.57.73-1.42.73-2.54s-.24-1.96-.73-2.54c-.49-.57-1.1-.86-1.82-.86s-1.33.29-1.82.86c-.49.57-.73,1.42-.73,2.54s.24,1.97.72,2.54c.48.57,1.09.86,1.84.86s1.33-.29,1.82-.86ZM308.11,69.57c-1.43-.61-2.57-1.45-3.41-2.52s-1.32-2.29-1.43-3.64h7.46c.09.58.34,1.02.75,1.29.41.28.93.42,1.56.42.4,0,.71-.09.95-.26.23-.18.35-.39.35-.65,0-.44-.25-.76-.74-.95-.49-.19-1.32-.4-2.48-.63-1.42-.28-2.6-.58-3.52-.91-.92-.33-1.73-.89-2.42-1.68-.69-.79-1.03-1.89-1.03-3.29,0-1.21.32-2.32.96-3.31.64-.99,1.59-1.77,2.85-2.34,1.26-.57,2.79-.86,4.58-.86,2.66,0,4.74.65,6.25,1.96s2.41,3.01,2.71,5.11h-6.89c-.12-.54-.36-.95-.74-1.24s-.88-.44-1.5-.44c-.4,0-.7.08-.91.23-.21.15-.31.38-.31.68,0,.4.25.69.73.89.49.2,1.27.4,2.35.61,1.42.28,2.62.59,3.6.94.98.35,1.83.95,2.55,1.8.72.85,1.08,2.02,1.08,3.52,0,1.17-.34,2.22-1.01,3.15s-1.65,1.67-2.92,2.21c-1.27.54-2.76.8-4.46.8-1.87,0-3.52-.3-4.95-.91Z"/>
    </g>
  </g>
</svg>